<?xml version="1.0" encoding="UTF-8"?>
<svg xmlns="http://www.w3.org/2000/svg" xmlns:xlink="http://www.w3.org/1999/xlink" width="465.36" height="153.6" viewBox="0 0 465.36 153.6">
<defs>
<clipPath id="clip-0">
<path clip-rule="nonzero" d="M 212 111 L 250 111 L 250 153.601562 L 212 153.601562 Z M 212 111 "/>
</clipPath>
<clipPath id="clip-1">
<path clip-rule="nonzero" d="M 0 31 L 465.359375 31 L 465.359375 126 L 0 126 Z M 0 31 "/>
</clipPath>
</defs>
<path fill-rule="nonzero" fill="rgb(49.411011%, 71.765137%, 86.66687%)" fill-opacity="1" d="M 221.925781 34.246094 C 216.683594 34.246094 212.3125 37.96875 211.632812 41.316406 C 211.632812 41.316406 211.3125 42.914062 209.683594 42.914062 L 193.546875 42.914062 C 193.546875 42.914062 191.921875 42.914062 191.921875 44.539062 L 191.921875 47.707031 L 209.824219 47.707031 C 209.824219 47.707031 211.449219 47.707031 211.847656 49.285156 C 212.628906 52.410156 216.855469 55.910156 221.925781 55.910156 C 224.691406 55.910156 227.191406 54.839844 228.148438 53.984375 C 228.148438 53.984375 229.105469 53.132812 230.226562 54.3125 L 241.734375 66.410156 C 241.734375 66.410156 242.855469 67.589844 244.003906 66.4375 L 246.242188 64.199219 L 233.0625 50.363281 C 233.0625 50.363281 231.9375 49.1875 232.199219 48.554688 C 232.460938 47.917969 232.757812 46.535156 232.757812 45.078125 C 232.757812 39.09375 227.90625 34.246094 221.925781 34.246094 Z M 221.925781 34.246094 "/>
<path fill-rule="nonzero" fill="rgb(49.411011%, 71.765137%, 86.66687%)" fill-opacity="1" d="M 390.050781 85.367188 C 396.035156 85.367188 400.882812 80.519531 400.882812 74.535156 C 400.882812 68.554688 396.035156 63.703125 390.050781 63.703125 C 384.984375 63.703125 380.742188 67.1875 379.957031 70.3125 C 379.957031 70.3125 379.558594 71.890625 377.933594 71.890625 L 313.410156 71.890625 C 313.410156 71.890625 311.78125 71.890625 311.78125 73.515625 L 311.78125 76.683594 L 377.808594 76.683594 C 377.808594 76.683594 379.433594 76.683594 379.753906 78.277344 C 380.429688 81.636719 384.804688 85.367188 390.050781 85.367188 Z M 390.050781 85.367188 "/>
<path fill-rule="nonzero" fill="rgb(49.411011%, 71.765137%, 86.66687%)" fill-opacity="1" d="M 327.488281 142.898438 C 333.183594 141.074219 336.324219 134.976562 334.503906 129.28125 C 332.699219 123.648438 326.722656 120.523438 322.640625 121.746094 C 322.640625 121.746094 321.082031 122.214844 320.042969 120.960938 L 301.222656 98.3125 C 301.222656 98.3125 300.183594 97.058594 299.296875 98.425781 L 297.503906 101.191406 L 315.703125 123.472656 C 315.703125 123.472656 316.734375 124.734375 315.554688 125.855469 C 313.816406 127.507812 312.558594 131.796875 313.867188 135.886719 C 315.691406 141.582031 321.789062 144.722656 327.488281 142.898438 Z M 327.488281 142.898438 "/>
<path fill-rule="nonzero" fill="rgb(49.411011%, 71.765137%, 86.66687%)" fill-opacity="1" d="M 101.085938 66.335938 C 101.085938 60.351562 96.234375 55.503906 90.253906 55.503906 C 84.269531 55.503906 79.421875 60.351562 79.421875 66.335938 C 79.421875 71.402344 82.90625 75.644531 86.027344 76.429688 C 86.027344 76.429688 87.605469 76.828125 87.5625 78.453125 L 86.941406 100.929688 C 86.941406 100.929688 86.898438 102.558594 88.523438 102.558594 L 91.691406 102.558594 L 92.355469 78.582031 C 92.355469 78.582031 92.398438 76.953125 93.996094 76.632812 C 97.351562 75.957031 101.085938 71.582031 101.085938 66.335938 Z M 101.085938 66.335938 "/>
<g clip-path="url(#clip-0)">
<path fill-rule="nonzero" fill="rgb(49.411011%, 71.765137%, 86.66687%)" fill-opacity="1" d="M 212.695312 141.820312 C 212.277344 147.785156 216.777344 152.964844 222.746094 153.378906 C 228.714844 153.796875 233.890625 149.296875 234.308594 143.332031 C 234.488281 140.753906 233.710938 138.351562 233.023438 137.371094 C 233.023438 137.371094 232.335938 136.390625 233.371094 135.136719 L 248.613281 116.683594 C 248.613281 116.683594 249.652344 115.429688 248.582031 114.199219 L 246.507812 111.8125 L 229.808594 131.890625 C 229.808594 131.890625 228.765625 133.144531 228.09375 132.765625 C 227.417969 132.386719 225.902344 131.882812 224.257812 131.769531 C 218.289062 131.351562 213.113281 135.851562 212.695312 141.820312 Z M 212.695312 141.820312 "/>
</g>
<path fill-rule="nonzero" fill="rgb(49.411011%, 71.765137%, 86.66687%)" fill-opacity="1" d="M 329.707031 10.878906 C 329.707031 13.144531 330.410156 15.246094 331.007812 16.117188 C 331.007812 16.117188 331.601562 16.988281 330.453125 18.140625 L 306.144531 42.449219 C 306.144531 42.449219 304.992188 43.597656 306.144531 44.75 L 308.382812 46.988281 L 334 21.371094 C 334 21.371094 335.148438 20.222656 335.945312 20.679688 C 336.742188 21.140625 338.566406 21.710938 340.539062 21.710938 C 346.523438 21.710938 351.371094 16.859375 351.371094 10.878906 C 351.371094 4.894531 346.523438 0.046875 340.539062 0.046875 C 334.558594 0.046875 329.707031 4.894531 329.707031 10.878906 Z M 329.707031 10.878906 "/>
<path fill-rule="nonzero" fill="rgb(10.588074%, 30.195618%, 38.822937%)" fill-opacity="1" d="M 62.953125 91.574219 C 62.953125 91.574219 58.160156 91.574219 58.160156 96.367188 L 58.160156 100.597656 C 58.160156 100.597656 58.160156 105.390625 62.953125 105.390625 L 116.792969 105.390625 C 116.792969 105.390625 121.585938 105.390625 121.585938 100.597656 L 121.585938 96.367188 C 121.585938 96.367188 121.585938 91.574219 116.792969 91.574219 Z M 62.953125 91.574219 "/>
<g clip-path="url(#clip-1)">
<path fill-rule="nonzero" fill="rgb(10.588074%, 30.195618%, 38.822937%)" fill-opacity="1" d="M 465.289062 44.980469 L 465.289062 35.453125 C 465.289062 35.453125 465.289062 32.6875 462.523438 32.6875 L 419.074219 32.6875 C 419.074219 32.6875 416.308594 32.6875 416.308594 35.453125 L 416.308594 108.808594 L 416.3125 108.824219 L 416.308594 108.824219 L 416.308594 108.808594 L 364.9375 108.808594 C 364.9375 108.808594 362.171875 108.808594 362.171875 106.042969 L 362.171875 35.453125 C 362.171875 35.453125 362.171875 32.6875 359.402344 32.6875 L 347.300781 32.6875 C 347.300781 32.6875 344.53125 32.6875 344.53125 35.453125 L 344.53125 121.507812 C 344.53125 121.507812 344.53125 124.277344 347.300781 124.277344 L 419.074219 124.277344 C 419.046875 124.277344 419.027344 124.265625 419 124.265625 L 420.992188 124.265625 L 420.996094 124.277344 L 431.179688 124.277344 C 431.179688 124.277344 433.945312 124.277344 433.945312 121.507812 L 433.945312 88.507812 C 433.945312 88.507812 433.945312 85.742188 436.714844 85.742188 L 460.761719 85.742188 C 460.761719 85.742188 463.527344 85.742188 463.527344 82.972656 L 463.527344 73.988281 C 463.527344 73.988281 463.527344 71.222656 460.761719 71.222656 L 436.714844 71.222656 C 436.714844 71.222656 433.945312 71.222656 433.945312 68.457031 L 433.945312 50.515625 C 433.945312 50.515625 433.945312 47.75 436.714844 47.75 L 462.523438 47.75 C 462.523438 47.75 465.289062 47.75 465.289062 44.980469 Z M 318.40625 77.058594 C 318.40625 48.96875 304.703125 31.195312 276.75 31.195312 C 252.191406 31.195312 231.972656 49.511719 231.972656 79.90625 C 231.972656 107.992188 245.679688 125.769531 273.628906 125.769531 C 298.1875 125.769531 318.40625 107.449219 318.40625 77.058594 Z M 299.546875 79.09375 C 299.546875 98.902344 288.964844 109.757812 275.121094 109.757812 C 258.703125 109.757812 250.835938 97.273438 250.835938 77.734375 C 250.835938 58.0625 261.417969 47.070312 275.257812 47.070312 C 291.675781 47.070312 299.546875 59.691406 299.546875 79.09375 Z M 212.859375 121.578125 L 199.734375 35.574219 C 199.316406 32.839844 196.554688 32.839844 196.554688 32.839844 L 181.347656 32.839844 C 178.585938 32.839844 177.726562 35.46875 177.726562 35.46875 L 163.136719 80.132812 C 161.644531 85.011719 159.476562 93.007812 158.699219 96.671875 C 158.375 98.199219 158.191406 98.847656 158.144531 98.992188 C 158.144531 98.992188 158.09375 99.136719 158.046875 99.011719 C 158 98.882812 157.8125 98.246094 157.464844 96.605469 C 156.683594 92.933594 154.511719 84.925781 153.019531 80.042969 L 138.410156 35.316406 C 138.410156 35.316406 137.550781 32.6875 134.785156 32.6875 L 119.558594 32.6875 C 119.558594 32.6875 116.792969 32.6875 116.375 35.421875 L 108.226562 88.8125 C 107.996094 89.570312 107.246094 91.238281 105.050781 91.238281 L 75.089844 91.238281 C 75.089844 91.238281 72.574219 91.210938 71.5 88.945312 L 52.585938 35.296875 C 52.585938 35.296875 52.515625 35.113281 52.375 34.851562 L 52.324219 34.707031 C 52.324219 34.707031 51.691406 32.914062 51.601562 33.824219 C 51.019531 33.234375 50.160156 32.6875 48.898438 32.6875 L 33.671875 32.6875 C 33.671875 32.6875 30.90625 32.6875 30 35.304688 L 0.191406 121.660156 C 0.191406 121.660156 -0.710938 124.277344 2.054688 124.277344 L 14.296875 124.277344 C 14.296875 124.277344 17.0625 124.277344 17.957031 121.65625 L 22.550781 108.171875 C 22.550781 108.171875 23.441406 105.550781 26.207031 105.550781 L 55.410156 105.550781 C 55.410156 105.550781 57.410156 105.566406 58.542969 107.1875 L 63.320312 121.511719 C 63.320312 121.511719 63.855469 123.089844 65.386719 123.824219 C 65.871094 124.089844 66.460938 124.277344 67.183594 124.277344 L 81.191406 124.277344 C 81.191406 124.277344 83.957031 124.277344 83.039062 121.667969 L 78.085938 107.625 C 77.960938 106.863281 77.988281 105.402344 80.085938 105.402344 L 102.890625 105.402344 C 102.890625 105.402344 105.535156 105.425781 105.300781 107.988281 L 103.234375 121.542969 C 103.234375 121.542969 102.816406 124.277344 105.582031 124.277344 L 120.589844 124.277344 L 120.601562 124.199219 L 120.742188 124.199219 L 126.070312 81.1875 C 126.816406 74.875 127.789062 64.078125 128.390625 57.113281 L 128.460938 57.113281 C 128.460938 57.113281 128.597656 57.113281 129.09375 59.835938 C 129.953125 64.574219 132.125 73.394531 134.566406 81.265625 L 147.816406 121.648438 C 147.816406 121.648438 148.679688 124.277344 151.445312 124.277344 L 153.632812 124.277344 C 153.632812 124.277344 155.816406 124.277344 155.816406 124.292969 L 155.8125 124.308594 L 164.710938 124.308594 C 167.472656 124.308594 168.335938 121.683594 168.335938 121.683594 L 181.566406 81.351562 C 184.003906 73.492188 186.171875 64.683594 187.035156 59.949219 C 187.527344 57.230469 187.664062 57.230469 187.664062 57.230469 L 187.800781 57.230469 C 188.476562 65.363281 189.289062 73.628906 190.238281 81.625 L 195.523438 124.308594 L 210.511719 124.308594 C 213.273438 124.308594 212.859375 121.578125 212.859375 121.578125 Z M 53.699219 91.574219 L 27.648438 91.574219 L 37.011719 64.304688 C 38.367188 59.824219 39.453125 55.753906 40.539062 51.683594 L 40.605469 51.683594 C 40.605469 51.683594 40.671875 51.683594 41.148438 53.71875 C 41.625 55.753906 42.84375 59.824219 44.335938 64.304688 Z M 53.699219 91.574219 "/>
</g>
</svg>
