<?xml version="1.0" encoding="UTF-8"?>
<svg xmlns="http://www.w3.org/2000/svg" xmlns:xlink="http://www.w3.org/1999/xlink" width="210.115" height="62.5322" viewBox="0 0 210.115 62.5322">
<defs>
<clipPath id="clip-0">
<path clip-rule="nonzero" d="M 0 0 L 210.113281 0 L 210.113281 62.53125 L 0 62.53125 Z M 0 0 "/>
</clipPath>
</defs>
<g clip-path="url(#clip-0)">
<path fill-rule="nonzero" fill="rgb(100%, 100%, 100%)" fill-opacity="1" d="M 0 62.523438 L 210.113281 62.523438 L 210.113281 0.00390625 L 0 0.00390625 Z M 0 62.523438 "/>
</g>
<path fill-rule="nonzero" fill="rgb(0%, 8.599854%, 10.998535%)" fill-opacity="1" d="M 25.679688 48.015625 L 13.34375 14.664062 L 20.75 14.664062 L 30.324219 40.46875 L 39.597656 14.664062 L 44.578125 14.664062 L 32.621094 48.015625 Z M 25.679688 48.015625 "/>
<path fill-rule="nonzero" fill="rgb(0%, 8.599854%, 10.998535%)" fill-opacity="1" d="M 48.613281 35.082031 C 48.613281 38.941406 49.191406 41.757812 50.351562 43.519531 C 51.507812 45.289062 53.078125 46.617188 55.058594 47.511719 C 57.042969 48.402344 59.417969 48.851562 62.183594 48.851562 C 64.992188 48.851562 67.3125 48.371094 69.144531 47.410156 C 70.980469 46.449219 72.378906 45.128906 73.347656 43.453125 C 74.316406 41.777344 74.800781 39.011719 74.800781 35.148438 L 74.800781 14.664062 L 68.761719 14.664062 L 68.761719 35.613281 C 68.761719 39.015625 68.179688 41.308594 67.015625 42.496094 C 65.851562 43.683594 64.285156 44.277344 62.316406 44.277344 C 60.320312 44.277344 58.691406 43.675781 57.4375 42.472656 C 56.183594 41.269531 55.554688 38.820312 55.554688 35.117188 L 55.554688 14.664062 L 48.613281 14.664062 Z M 48.613281 35.082031 "/>
<path fill-rule="nonzero" fill="rgb(0%, 50.39978%, 78.69873%)" fill-opacity="1" d="M 84.308594 39.859375 L 84.308594 40.742188 L 84.570312 40.507812 C 84.507812 40.257812 84.457031 40.015625 84.410156 39.765625 Z M 88.761719 30.03125 C 88.761719 30.179688 88.871094 30.289062 89.015625 30.289062 C 89.167969 30.289062 89.277344 30.179688 89.277344 30.03125 C 89.277344 29.886719 89.167969 29.742188 89.015625 29.742188 C 88.871094 29.742188 88.761719 29.886719 88.761719 30.03125 M 105.210938 38.128906 C 104.808594 37.027344 103.742188 36.292969 102.269531 36.402344 C 101.460938 34.855469 100.171875 35.585938 99.804688 36.035156 C 100.207031 36.402344 100.535156 36.546875 101.015625 36.621094 L 101.015625 36.953125 C 100.101562 36.917969 99.804688 36.546875 99.179688 35.882812 C 98.917969 38.089844 101.496094 38.871094 102.308594 37.0625 C 103.519531 37.027344 104.257812 37.578125 104.515625 38.351562 C 104.769531 39.121094 104.515625 39.972656 104.109375 40.375 C 103.375 41.257812 102.195312 41.257812 101.128906 40.707031 C 100.46875 40.375 99.765625 39.671875 99.140625 39.011719 C 98.226562 37.984375 97.707031 37.539062 97.003906 37.171875 C 96.621094 36.992188 96.234375 36.898438 95.859375 36.839844 C 95.640625 36.800781 95.421875 36.773438 95.203125 36.769531 C 94.988281 36.769531 94.796875 36.792969 94.613281 36.828125 C 93.042969 37 91.445312 37.777344 89.53125 37.945312 L 88.503906 37.945312 C 87.863281 38.503906 87.300781 39 86.808594 39.4375 L 85.597656 40.484375 C 85.597656 40.496094 85.605469 40.503906 85.605469 40.507812 C 85.089844 40.984375 84.789062 41.257812 84.789062 41.257812 C 84.933594 42.402344 84.96875 42.953125 84.96875 43.980469 C 84.96875 44.832031 84.933594 45.234375 84.933594 45.601562 C 84.894531 45.96875 84.820312 46.265625 84.714844 46.554688 C 84.640625 46.816406 84.417969 47.039062 84.050781 47.074219 C 83.71875 47.144531 82.941406 46.554688 82.6875 46.925781 C 82.46875 47.21875 82.726562 47.917969 82.941406 48.105469 L 85.113281 48.105469 C 85.375 47.550781 85.484375 47.21875 85.632812 46.894531 C 85.816406 46.632812 85.96875 46.226562 86.109375 45.96875 C 86.261719 45.714844 86.402344 45.34375 86.480469 45.085938 C 86.515625 44.832031 86.628906 44.570312 86.664062 44.390625 C 86.8125 43.980469 87.027344 43.609375 87.179688 43.394531 C 87.214844 43.328125 87.257812 43.269531 87.296875 43.214844 C 87.394531 43.355469 87.484375 43.5 87.546875 43.609375 C 88.0625 44.421875 88.503906 45.050781 89.238281 45.34375 C 89.53125 45.488281 89.71875 45.601562 89.828125 45.714844 C 89.9375 45.820312 89.9375 46.15625 89.902344 46.375 C 89.902344 46.667969 89.792969 46.925781 89.5 47.039062 C 89.019531 47.21875 88.25 46.523438 87.949219 46.894531 C 87.691406 47.183594 87.988281 47.734375 88.25 48.105469 L 90.230469 48.105469 C 90.714844 47.332031 90.894531 46.265625 90.894531 45.378906 C 90.894531 44.460938 90.894531 44.238281 90.34375 44.019531 C 90.15625 43.90625 89.976562 43.464844 89.828125 42.984375 C 89.828125 42.933594 89.832031 42.839844 89.832031 42.734375 C 90.78125 42.421875 91.828125 41.867188 92.972656 41.023438 C 92.976562 41.175781 92.984375 41.328125 92.996094 41.480469 C 93.179688 42.734375 93.324219 43.875 94.285156 44.792969 C 94.539062 45.050781 94.757812 45.308594 94.796875 45.457031 C 94.796875 45.566406 94.648438 45.96875 94.539062 46.15625 C 94.320312 46.632812 93.839844 47.039062 93.476562 47.074219 C 92.996094 47.144531 92.441406 46.523438 92.070312 46.894531 C 91.742188 47.21875 92.183594 47.917969 92.402344 48.105469 L 94.429688 48.105469 C 95.089844 46.894531 96.011719 45.859375 96.34375 45.195312 C 96.527344 44.714844 96.527344 44.535156 96.15625 44.390625 C 95.496094 44.019531 95.570312 43.210938 95.753906 42.289062 C 95.800781 42.136719 95.878906 41.984375 95.960938 41.835938 C 96.460938 43.226562 97.113281 44.535156 98.625 44.9375 C 98.882812 44.972656 99.25 45.160156 99.289062 45.234375 C 99.289062 45.308594 99.289062 45.601562 99.25 45.820312 C 99.179688 46.265625 98.917969 46.78125 98.585938 47.039062 C 98.226562 47.332031 97.304688 46.375 97.003906 46.925781 C 96.785156 47.371094 97.152344 47.960938 97.339844 48.105469 L 99.289062 48.105469 C 99.839844 46.894531 100.320312 45.820312 100.46875 45.050781 C 100.613281 44.128906 100.613281 43.796875 99.914062 43.652344 C 99.546875 43.609375 99.25 43.464844 99.140625 42.953125 C 98.882812 42.03125 98.917969 40.484375 98.226562 39.417969 C 98.996094 40.335938 99.839844 41 100.574219 41.371094 C 102.269531 42.289062 104.035156 41.957031 104.878906 40.742188 C 105.433594 39.820312 105.433594 38.792969 105.210938 38.128906 M 96.378906 27.898438 C 99.140625 25.730469 107.9375 19.726562 114.34375 17.449219 C 106.757812 19.324219 100.761719 23.742188 96.378906 27.898438 M 83.867188 25.765625 C 85.046875 21.976562 86.960938 15.128906 90.3125 10.199219 C 87.992188 12.734375 84.566406 18.253906 83.867188 25.765625 M 87.066406 26.792969 C 87.289062 25.984375 87.730469 24.441406 88.652344 22.597656 C 87.652344 23.921875 87.140625 24.917969 86.628906 26.167969 C 86.886719 26.320312 87.03125 26.5 87.066406 26.792969 M 122.109375 14.796875 C 122.625 14.832031 123.0625 14.796875 122.953125 15.460938 C 122.917969 15.9375 122.769531 16.195312 121.996094 16.378906 C 119.640625 16.78125 118.574219 17.300781 115.042969 18.808594 C 116.769531 18.292969 118.207031 17.996094 119.089844 17.996094 C 119.53125 17.996094 119.640625 18.035156 119.640625 18.402344 C 119.640625 18.882812 119.382812 19.175781 118.941406 19.324219 C 116.878906 19.984375 114.011719 21.3125 111.394531 22.449219 C 114.085938 21.640625 115.410156 21.679688 115.964844 21.640625 C 116.332031 21.570312 116.847656 21.570312 116.664062 22.195312 C 116.589844 22.746094 116.402344 23.003906 115.335938 23.300781 C 111.394531 24.292969 108.96875 25.324219 104.625 27.496094 C 109.226562 26.167969 112.246094 25.984375 114.265625 25.875 C 115.257812 25.875 115.699219 25.875 115.59375 26.425781 C 115.558594 26.941406 115.449219 27.203125 114.5625 27.457031 C 111.765625 28.265625 108.234375 28.929688 105.324219 30.179688 C 106.613281 29.964844 107.902344 29.742188 108.636719 29.847656 C 109.261719 29.921875 109.523438 30.074219 109.410156 30.582031 C 109.300781 31.136719 108.894531 31.507812 108.234375 31.542969 C 105.730469 31.761719 104.960938 32.023438 101.9375 32.9375 C 102.523438 32.976562 102.523438 33.34375 102.269531 33.675781 C 102.011719 34.046875 101.53125 34.339844 101.089844 34.339844 C 100.171875 34.304688 98.332031 34.449219 96.929688 35.371094 C 96.15625 35.957031 95.679688 34.597656 96.15625 34.046875 C 97.265625 32.828125 100.535156 31.027344 102.304688 29.816406 C 99.03125 31.394531 95.941406 32.828125 92.996094 35.480469 C 92 36.402344 91.523438 35.992188 91.410156 35.589844 C 91.339844 35.109375 91.261719 34.777344 90.824219 35.078125 C 90.457031 35.257812 90.199219 35.515625 89.570312 36.035156 L 89.558594 36.027344 L 88.503906 36.976562 L 88.503906 36.964844 L 84.300781 40.742188 L 84.300781 39.832031 L 87.628906 36.839844 L 87.628906 35.96875 L 85.742188 37.632812 L 85.742188 36.691406 L 88.503906 34.230469 L 88.503906 31.835938 L 90.824219 31.65625 L 88.984375 31.027344 C 89.976562 30.253906 90.898438 30.84375 91.226562 31.136719 C 91.261719 30.992188 91.339844 30.324219 90.714844 29.964844 C 90.421875 29.816406 90.089844 29.703125 89.535156 29.742188 C 88.691406 29.070312 87.820312 29.410156 87.390625 29.800781 C 86.707031 28.886719 85.820312 28.78125 85.820312 28.78125 L 86.515625 30.324219 L 85.335938 29.964844 L 86.226562 31.1875 C 85.714844 31.988281 85.105469 32.976562 84.640625 34.816406 C 84.417969 35.515625 84.199219 36.953125 84.269531 38.203125 C 84.273438 38.300781 84.285156 38.378906 84.285156 38.46875 C 83.167969 35.949219 81.953125 31.941406 81.953125 27.308594 C 81.953125 24.328125 82.429688 19.984375 84.640625 15.386719 C 86.921875 10.492188 89.71875 7.765625 91.816406 5.886719 C 92.847656 5.007812 93.363281 4.714844 93.914062 4.597656 C 94.285156 4.5625 94.648438 4.714844 94.796875 5.152344 C 95.054688 6.148438 95.019531 6.296875 94.757812 6.699219 C 94.136719 7.730469 92.40625 9.71875 91.410156 12.332031 C 93.324219 10.125 93.253906 10.378906 94.394531 9.277344 C 94.648438 8.945312 95.164062 8.6875 95.421875 9.277344 C 95.71875 9.9375 95.679688 10.085938 95.3125 10.675781 C 95.019531 11.191406 93.507812 12.585938 91.890625 15.609375 C 92.660156 14.6875 93.105469 14.171875 93.324219 14.0625 C 93.585938 13.804688 93.914062 13.398438 94.285156 13.949219 C 94.757812 14.613281 94.503906 14.6875 94.320312 15.128906 C 94.171875 15.53125 92.660156 17.996094 91.558594 20.09375 C 92.332031 19.175781 92.441406 18.957031 92.847656 18.773438 C 93.070312 18.660156 93.214844 18.808594 93.324219 19.066406 C 93.476562 19.398438 93.476562 19.839844 93.363281 20.09375 C 92.332031 22.195312 91.742188 22.488281 90.640625 26.167969 C 91.523438 25.066406 91.636719 24.953125 92.039062 24.476562 C 92.296875 24.292969 92.699219 23.921875 92.996094 24.441406 C 93.214844 24.695312 93.324219 25.136719 93.105469 25.730469 C 92.589844 26.976562 92.476562 27.089844 91.523438 29.261719 C 91.855469 29.167969 91.96875 29.246094 92.160156 29.578125 C 93.011719 28.574219 93.832031 27.667969 94.539062 26.941406 C 97.265625 24.179688 99.765625 21.976562 103.519531 19.398438 C 107.792969 16.527344 111.394531 14.832031 113.898438 13.804688 C 115.148438 13.359375 116.179688 12.992188 116.664062 12.953125 C 117.140625 12.882812 117.542969 12.953125 117.542969 13.398438 C 117.542969 13.804688 117.429688 14.0625 117.25 14.171875 C 116.589844 14.578125 116.070312 14.722656 114.230469 15.640625 C 117.175781 14.980469 120.597656 14.613281 122.109375 14.796875 "/>
<path fill-rule="nonzero" fill="rgb(0%, 50.39978%, 78.69873%)" fill-opacity="1" d="M 184.652344 47.992188 L 184.652344 40.851562 L 186.617188 40.851562 L 188.339844 45.875 L 190.117188 40.851562 L 191.84375 40.851562 L 191.84375 47.992188 L 190.472656 47.992188 L 190.472656 42.601562 L 188.726562 47.511719 L 187.53125 47.511719 L 185.820312 42.53125 L 185.820312 47.992188 Z M 184.652344 47.992188 "/>
<path fill-rule="nonzero" fill="rgb(0%, 50.39978%, 78.69873%)" fill-opacity="1" d="M 183.925781 47.992188 L 181.148438 40.851562 L 179.65625 40.851562 L 176.878906 47.992188 L 177.960938 47.992188 L 178.703125 46.085938 L 181.65625 46.085938 L 182.402344 47.992188 Z M 181.289062 45.136719 L 179.074219 45.136719 L 180.179688 42.289062 Z M 181.289062 45.136719 "/>
<path fill-rule="nonzero" fill="rgb(0%, 50.39978%, 78.69873%)" fill-opacity="1" d="M 176.707031 44.273438 C 176.707031 43.546875 176.566406 42.925781 176.296875 42.414062 C 176.023438 41.902344 175.660156 41.511719 175.199219 41.25 C 174.742188 40.984375 174.101562 40.851562 173.277344 40.851562 L 170.207031 40.851562 L 170.207031 47.992188 L 173.148438 47.992188 C 174.011719 47.992188 174.6875 47.828125 175.183594 47.503906 C 175.679688 47.179688 176.058594 46.738281 176.3125 46.179688 C 176.574219 45.621094 176.707031 44.980469 176.707031 44.273438 M 175.125 44.359375 C 175.125 44.886719 175.035156 45.367188 174.859375 45.792969 C 174.683594 46.222656 174.4375 46.53125 174.132812 46.710938 C 173.824219 46.886719 173.378906 46.980469 172.800781 46.980469 L 171.691406 46.980469 L 171.691406 41.832031 L 172.589844 41.832031 C 173.316406 41.832031 173.839844 41.929688 174.144531 42.132812 C 174.449219 42.335938 174.691406 42.628906 174.863281 43.015625 C 175.039062 43.40625 175.125 43.855469 175.125 44.359375 "/>
<path fill-rule="nonzero" fill="rgb(0%, 50.39978%, 78.69873%)" fill-opacity="1" d="M 168.128906 43.804688 C 168.371094 43.433594 168.488281 43.042969 168.488281 42.621094 C 168.488281 42.273438 168.40625 41.957031 168.242188 41.679688 C 168.078125 41.402344 167.851562 41.195312 167.566406 41.054688 C 167.277344 40.921875 166.859375 40.851562 166.3125 40.851562 L 163.640625 40.851562 L 163.640625 47.992188 L 165.042969 47.992188 L 165.042969 45.074219 L 165.855469 45.074219 L 167.636719 47.992188 L 169.441406 47.992188 L 167.105469 44.660156 C 167.546875 44.460938 167.890625 44.179688 168.128906 43.804688 M 167.003906 42.785156 C 167.003906 43.125 166.886719 43.425781 166.652344 43.695312 C 166.421875 43.960938 165.996094 44.09375 165.386719 44.09375 L 165.042969 44.09375 L 165.042969 41.828125 L 165.558594 41.828125 C 166.140625 41.828125 166.527344 41.917969 166.722656 42.085938 C 166.910156 42.261719 167.003906 42.492188 167.003906 42.785156 "/>
<path fill-rule="nonzero" fill="rgb(0%, 50.39978%, 78.69873%)" fill-opacity="1" d="M 157.707031 47.992188 L 157.707031 40.851562 L 162.28125 40.851562 L 162.28125 41.835938 L 159.191406 41.835938 L 159.191406 43.824219 L 161.746094 43.824219 L 161.746094 44.804688 L 159.191406 44.804688 L 159.191406 46.980469 L 162.507812 46.980469 L 162.507812 47.992188 Z M 157.707031 47.992188 "/>
<path fill-rule="nonzero" fill="rgb(0%, 50.39978%, 78.69873%)" fill-opacity="1" d="M 153.078125 47.992188 L 153.078125 41.835938 L 150.519531 41.835938 L 150.519531 40.851562 L 157.117188 40.851562 L 157.117188 41.835938 L 154.5625 41.835938 L 154.5625 47.992188 Z M 153.078125 47.992188 "/>
<path fill-rule="nonzero" fill="rgb(0%, 50.39978%, 78.69873%)" fill-opacity="1" d="M 145.761719 46.703125 C 146.320312 46.9375 146.734375 47.078125 147.011719 47.125 C 147.289062 47.167969 147.539062 47.191406 147.773438 47.191406 C 148.1875 47.191406 148.5 47.097656 148.707031 46.910156 C 148.914062 46.722656 149.015625 46.5 149.015625 46.238281 C 149.015625 46.042969 148.957031 45.859375 148.839844 45.699219 C 148.726562 45.542969 148.445312 45.339844 148 45.085938 L 147.515625 44.820312 C 146.828125 44.4375 146.363281 44.082031 146.121094 43.757812 C 145.871094 43.433594 145.75 43.058594 145.75 42.628906 C 145.75 42.089844 145.953125 41.632812 146.363281 41.25 C 146.773438 40.867188 147.367188 40.675781 148.136719 40.675781 C 148.710938 40.675781 149.359375 40.757812 150.082031 40.921875 L 150.082031 42.0625 C 149.34375 41.792969 148.753906 41.652344 148.320312 41.652344 C 147.960938 41.652344 147.6875 41.730469 147.503906 41.886719 C 147.3125 42.042969 147.222656 42.230469 147.222656 42.449219 C 147.222656 42.617188 147.277344 42.773438 147.390625 42.917969 C 147.503906 43.0625 147.78125 43.261719 148.230469 43.511719 L 148.746094 43.796875 C 149.539062 44.238281 150.039062 44.621094 150.257812 44.945312 C 150.46875 45.273438 150.578125 45.640625 150.578125 46.050781 C 150.578125 46.636719 150.355469 47.136719 149.910156 47.546875 C 149.460938 47.964844 148.75 48.171875 147.777344 48.171875 C 147.203125 48.171875 146.527344 48.089844 145.761719 47.929688 Z M 145.761719 46.703125 "/>
<path fill-rule="nonzero" fill="rgb(0%, 50.39978%, 78.69873%)" fill-opacity="1" d="M 137.105469 47.992188 L 137.105469 40.851562 L 139.070312 40.851562 L 140.796875 45.875 L 142.566406 40.851562 L 144.296875 40.851562 L 144.296875 47.992188 L 142.925781 47.992188 L 142.925781 42.601562 L 141.183594 47.511719 L 139.984375 47.511719 L 138.273438 42.53125 L 138.273438 47.992188 Z M 137.105469 47.992188 "/>
<path fill-rule="nonzero" fill="rgb(0%, 50.39978%, 78.69873%)" fill-opacity="1" d="M 136.183594 47.992188 L 133.402344 40.851562 L 131.914062 40.851562 L 129.132812 47.992188 L 130.214844 47.992188 L 130.957031 46.085938 L 133.914062 46.085938 L 134.652344 47.992188 Z M 133.542969 45.136719 L 131.324219 45.136719 L 132.433594 42.289062 Z M 133.542969 45.136719 "/>
<path fill-rule="nonzero" fill="rgb(0%, 50.39978%, 78.69873%)" fill-opacity="1" d="M 188.398438 27.8125 L 189.882812 27.8125 L 189.882812 34.949219 L 188.398438 34.949219 Z M 188.398438 27.8125 "/>
<path fill-rule="nonzero" fill="rgb(0%, 50.39978%, 78.69873%)" fill-opacity="1" d="M 182.394531 34.949219 L 182.394531 27.8125 L 186.96875 27.8125 L 186.96875 28.796875 L 183.878906 28.796875 L 183.878906 30.78125 L 186.433594 30.78125 L 186.433594 31.765625 L 183.878906 31.765625 L 183.878906 33.933594 L 187.195312 33.933594 L 187.195312 34.949219 Z M 182.394531 34.949219 "/>
<path fill-rule="nonzero" fill="rgb(0%, 50.39978%, 78.69873%)" fill-opacity="1" d="M 177.804688 34.949219 L 177.804688 28.796875 L 175.246094 28.796875 L 175.246094 27.8125 L 181.847656 27.8125 L 181.847656 28.796875 L 179.292969 28.796875 L 179.292969 34.949219 Z M 177.804688 34.949219 "/>
<path fill-rule="nonzero" fill="rgb(0%, 50.39978%, 78.69873%)" fill-opacity="1" d="M 173.230469 27.8125 L 174.714844 27.8125 L 174.714844 34.949219 L 173.230469 34.949219 Z M 173.230469 27.8125 "/>
<path fill-rule="nonzero" fill="rgb(0%, 50.39978%, 78.69873%)" fill-opacity="1" d="M 167.1875 33.660156 C 167.742188 33.894531 168.160156 34.035156 168.4375 34.078125 C 168.714844 34.125 168.964844 34.148438 169.195312 34.148438 C 169.613281 34.148438 169.925781 34.054688 170.128906 33.867188 C 170.335938 33.683594 170.4375 33.460938 170.4375 33.199219 C 170.4375 33 170.378906 32.816406 170.265625 32.660156 C 170.148438 32.5 169.867188 32.296875 169.421875 32.042969 L 168.9375 31.777344 C 168.25 31.394531 167.785156 31.042969 167.542969 30.71875 C 167.296875 30.390625 167.171875 30.015625 167.171875 29.585938 C 167.171875 29.050781 167.375 28.589844 167.789062 28.207031 C 168.199219 27.824219 168.789062 27.632812 169.5625 27.632812 C 170.132812 27.632812 170.78125 27.714844 171.503906 27.878906 L 171.503906 29.023438 C 170.765625 28.75 170.179688 28.613281 169.746094 28.613281 C 169.386719 28.613281 169.113281 28.6875 168.925781 28.84375 C 168.738281 29.003906 168.644531 29.1875 168.644531 29.40625 C 168.644531 29.578125 168.703125 29.730469 168.816406 29.875 C 168.929688 30.023438 169.207031 30.21875 169.65625 30.46875 L 170.171875 30.757812 C 170.960938 31.195312 171.460938 31.578125 171.679688 31.902344 C 171.894531 32.230469 172.003906 32.601562 172.003906 33.007812 C 172.003906 33.59375 171.777344 34.09375 171.332031 34.507812 C 170.886719 34.921875 170.175781 35.128906 169.203125 35.128906 C 168.625 35.128906 167.953125 35.046875 167.1875 34.886719 Z M 167.1875 33.660156 "/>
<path fill-rule="nonzero" fill="rgb(0%, 50.39978%, 78.69873%)" fill-opacity="1" d="M 165.425781 30.765625 C 165.667969 30.394531 165.785156 30 165.785156 29.582031 C 165.785156 29.230469 165.703125 28.917969 165.535156 28.636719 C 165.371094 28.359375 165.148438 28.152344 164.859375 28.015625 C 164.574219 27.878906 164.15625 27.8125 163.609375 27.8125 L 160.9375 27.8125 L 160.9375 34.949219 L 162.335938 34.949219 L 162.335938 32.03125 L 163.15625 32.03125 L 164.929688 34.949219 L 166.738281 34.949219 L 164.402344 31.617188 C 164.84375 31.421875 165.183594 31.136719 165.425781 30.765625 M 164.304688 29.746094 C 164.304688 30.082031 164.183594 30.386719 163.949219 30.652344 C 163.714844 30.921875 163.292969 31.054688 162.679688 31.054688 L 162.335938 31.054688 L 162.335938 28.789062 L 162.855469 28.789062 C 163.4375 28.789062 163.824219 28.875 164.015625 29.050781 C 164.207031 29.21875 164.304688 29.453125 164.304688 29.746094 "/>
<path fill-rule="nonzero" fill="rgb(0%, 50.39978%, 78.69873%)" fill-opacity="1" d="M 154.90625 34.949219 L 154.90625 27.8125 L 159.476562 27.8125 L 159.476562 28.796875 L 156.390625 28.796875 L 156.390625 30.78125 L 158.945312 30.78125 L 158.945312 31.765625 L 156.390625 31.765625 L 156.390625 33.933594 L 159.707031 33.933594 L 159.707031 34.949219 Z M 154.90625 34.949219 "/>
<path fill-rule="nonzero" fill="rgb(0%, 50.39978%, 78.69873%)" fill-opacity="1" d="M 150.070312 34.949219 L 147.429688 27.8125 L 149.015625 27.8125 L 151.0625 33.335938 L 153.050781 27.8125 L 154.113281 27.8125 L 151.554688 34.949219 Z M 150.070312 34.949219 "/>
<path fill-rule="nonzero" fill="rgb(0%, 50.39978%, 78.69873%)" fill-opacity="1" d="M 144.980469 27.8125 L 146.464844 27.8125 L 146.464844 34.949219 L 144.980469 34.949219 Z M 144.980469 27.8125 "/>
<path fill-rule="nonzero" fill="rgb(0%, 50.39978%, 78.69873%)" fill-opacity="1" d="M 137.230469 34.949219 L 137.230469 27.8125 L 138.542969 27.8125 L 141.84375 32.6875 L 141.84375 27.8125 L 143.035156 27.8125 L 143.035156 34.949219 L 141.703125 34.949219 L 138.425781 30.074219 L 138.425781 34.949219 Z M 137.230469 34.949219 "/>
<path fill-rule="nonzero" fill="rgb(0%, 50.39978%, 78.69873%)" fill-opacity="1" d="M 129.855469 27.8125 L 131.34375 27.8125 L 131.34375 32.1875 C 131.34375 32.980469 131.476562 33.503906 131.746094 33.765625 C 132.015625 34.019531 132.359375 34.148438 132.789062 34.148438 C 133.210938 34.148438 133.546875 34.023438 133.792969 33.765625 C 134.042969 33.511719 134.167969 33.023438 134.167969 32.296875 L 134.167969 27.8125 L 135.460938 27.8125 L 135.460938 32.195312 C 135.460938 33.019531 135.355469 33.617188 135.152344 33.972656 C 134.941406 34.332031 134.644531 34.613281 134.25 34.820312 C 133.855469 35.023438 133.359375 35.128906 132.761719 35.128906 C 132.167969 35.128906 131.660156 35.03125 131.234375 34.84375 C 130.8125 34.648438 130.476562 34.363281 130.226562 33.988281 C 129.980469 33.609375 129.855469 33.007812 129.855469 32.179688 Z M 129.855469 27.8125 "/>
<path fill-rule="nonzero" fill="rgb(0%, 50.39978%, 78.69873%)" fill-opacity="1" d="M 150.96875 21.910156 L 150.96875 14.769531 L 155.539062 14.769531 L 155.539062 15.753906 L 152.453125 15.753906 L 152.453125 17.742188 L 155.003906 17.742188 L 155.003906 18.722656 L 152.453125 18.722656 L 152.453125 20.894531 L 155.765625 20.894531 L 155.765625 21.910156 Z M 150.96875 21.910156 "/>
<path fill-rule="nonzero" fill="rgb(0%, 50.39978%, 78.69873%)" fill-opacity="1" d="M 145.582031 22.101562 C 145.96875 22.253906 146.371094 22.328125 146.78125 22.328125 C 146.953125 22.328125 147.109375 22.296875 147.242188 22.230469 C 147.375 22.167969 147.480469 22.0625 147.558594 21.921875 C 147.636719 21.773438 147.675781 21.476562 147.675781 21.019531 L 147.675781 14.769531 L 149.160156 14.769531 L 149.160156 20.863281 C 149.160156 21.53125 149.085938 22.019531 148.933594 22.324219 C 148.78125 22.628906 148.539062 22.875 148.203125 23.058594 C 147.875 23.246094 147.433594 23.335938 146.882812 23.335938 C 146.476562 23.335938 146.046875 23.277344 145.597656 23.164062 Z M 145.582031 22.101562 "/>
<path fill-rule="nonzero" fill="rgb(0%, 50.39978%, 78.69873%)" fill-opacity="1" d="M 143.539062 14.769531 L 145.027344 14.769531 L 145.027344 21.910156 L 143.539062 21.910156 Z M 143.539062 14.769531 "/>
<path fill-rule="nonzero" fill="rgb(0%, 50.39978%, 78.69873%)" fill-opacity="1" d="M 141.265625 17.722656 C 141.507812 17.351562 141.625 16.957031 141.625 16.539062 C 141.625 16.1875 141.542969 15.875 141.378906 15.597656 C 141.210938 15.316406 140.988281 15.109375 140.699219 14.972656 C 140.417969 14.835938 139.996094 14.769531 139.449219 14.769531 L 136.777344 14.769531 L 136.777344 21.910156 L 138.179688 21.910156 L 138.179688 18.988281 L 138.992188 18.988281 L 140.769531 21.910156 L 142.582031 21.910156 L 140.242188 18.574219 C 140.683594 18.378906 141.023438 18.09375 141.265625 17.722656 M 140.140625 16.703125 C 140.140625 17.042969 140.023438 17.34375 139.789062 17.609375 C 139.558594 17.878906 139.132812 18.011719 138.519531 18.011719 L 138.179688 18.011719 L 138.179688 15.746094 L 138.695312 15.746094 C 139.277344 15.746094 139.664062 15.835938 139.855469 16.007812 C 140.046875 16.179688 140.140625 16.410156 140.140625 16.703125 "/>
<path fill-rule="nonzero" fill="rgb(0%, 50.39978%, 78.69873%)" fill-opacity="1" d="M 131.785156 21.910156 L 129.144531 14.769531 L 130.726562 14.769531 L 132.773438 20.292969 L 134.765625 14.769531 L 135.828125 14.769531 L 133.265625 21.910156 Z M 131.785156 21.910156 "/>
<path fill-rule="nonzero" fill="rgb(0%, 50.39978%, 78.69873%)" fill-opacity="1" d="M 194.527344 34.949219 L 194.527344 28.796875 L 197.085938 28.796875 L 197.085938 27.8125 L 190.484375 27.8125 L 190.484375 28.796875 L 193.042969 28.796875 L 193.042969 34.949219 Z M 194.527344 34.949219 "/>
</svg>
